<svg width="10" height="14" viewBox="0 0 10 14" fill="none" xmlns="http://www.w3.org/2000/svg">
<path fill-rule="evenodd" clip-rule="evenodd" d="M9.05387 0.874798C9.05387 0.668718 8.88676 0.501465 8.68251 0.501465H6.82567C4.77423 0.501465 3.11199 2.006 3.11199 3.86146V5.87746H1.25516C1.05016 5.87746 0.883789 6.04472 0.883789 6.2508V8.19213C0.883789 8.39821 1.05016 8.56546 1.25516 8.56546H3.11199V13.5681C3.11199 13.7742 3.27837 13.9415 3.48336 13.9415H5.71157C5.91582 13.9415 6.08293 13.7742 6.08293 13.5681V8.56546H8.02816C8.19527 8.56546 8.34159 8.45346 8.3869 8.29218L8.92241 6.35085C8.98851 6.11341 8.81026 5.87746 8.56515 5.87746H6.08293V3.86146C6.08293 3.49037 6.41494 3.18946 6.82567 3.18946H8.68251C8.88676 3.18946 9.05387 3.02221 9.05387 2.81613V0.874798Z" fill="#525252"/>
</svg>
