<svg width="31" height="30" viewBox="0 0 31 30" fill="none" xmlns="http://www.w3.org/2000/svg">
<rect x="1.21998" y="0.46168" width="29.28" height="29.28" rx="1.68" stroke="#EBEBEB" stroke-opacity="0.2" stroke-width="0.48"/>
<g clip-path="url(#clip0_96_139)">
<path d="M22.4587 12.4083L22.3592 12.3648C22.3743 12.3373 22.3895 12.2869 22.4068 12.2858L22.9365 12.2824C22.9603 12.1977 23.2175 12.1141 22.9365 12.0306C22.7516 12.042 22.8608 11.8245 22.7527 11.7673C22.6662 11.7238 22.7311 11.6643 22.7722 11.6391C23.1224 11.4205 23.4132 11.0622 23.8889 11.1423C24.064 11.1721 24.2478 11.1481 24.424 11.1481C24.4996 11.1481 24.6142 11.1355 24.6023 11.2419C24.5645 11.5326 24.8185 11.6139 24.918 11.8005C24.9861 11.9241 25.0931 12.1107 24.8153 12.1599C24.6077 12.1977 24.998 12.39 24.7537 12.4575C24.665 12.4827 24.5742 12.5742 24.7094 12.7253C24.7894 12.8169 24.7375 12.9909 24.6131 13.1031C24.3332 13.364 24.2845 13.7532 24.1483 14.0931C24.1126 14.179 24.1699 14.2374 24.1905 14.3106C24.3191 14.7639 24.4834 15.192 24.7775 15.5651C24.8877 15.7059 25.0012 15.8902 24.9656 16.1077C24.9353 16.2874 25.0564 16.3686 25.1731 16.435C25.2045 16.4522 25.3158 16.3973 25.3158 16.3778C25.3115 16.2015 25.3763 16.015 25.2012 15.8616C24.9515 15.6441 24.8077 15.3316 24.6531 15.0363C24.4121 14.5762 24.3829 14.1218 24.7483 13.7131C24.8672 13.5792 24.8791 13.3812 25.0347 13.2656C25.1353 13.19 25.1137 13.0424 25.0466 12.9337C25.0034 12.865 24.9158 12.81 25.0661 12.7849C25.158 12.77 25.2012 12.8158 25.2088 12.9234C25.2295 13.1444 25.1869 13.3669 25.0866 13.562C25.0456 13.6422 25.0801 13.7898 25.0628 13.9718C25.0553 14.0657 24.9439 14.1653 24.9677 14.2957C25.0012 14.2809 25.0466 14.2763 25.0683 14.25C25.1255 14.1801 25.2055 14.1298 25.2704 14.1813C25.3839 14.2729 25.2423 14.3324 25.2088 14.3473C25.0174 14.4297 25.1764 14.5659 25.1634 14.6666C25.0953 15.2252 25.0877 15.2389 25.3828 15.6601C25.4834 15.8032 25.4369 15.9577 25.5234 16.1088C25.6769 16.3709 25.5072 16.569 25.1991 16.5621C25.1234 16.5609 25.0401 16.5953 24.9796 16.5117C24.9472 16.4659 24.8931 16.4133 24.8585 16.4991C24.8369 16.5495 24.8337 16.6147 24.8877 16.6697C24.9742 16.7578 25.0672 16.791 25.1861 16.8265C25.5169 16.9272 25.6293 17.2351 25.5763 17.6334C25.5504 17.8326 25.5493 18.0238 25.4574 18.2138C25.3893 18.3511 25.5288 18.572 25.3947 18.6796C25.3039 18.7529 25.0931 18.6693 25.0131 18.7449C24.8402 18.9085 24.7645 18.6487 24.611 18.6922C24.4283 18.7426 24.5418 18.4427 24.3872 18.3958C24.3364 18.3809 24.2596 18.2973 24.2683 18.2698C24.2964 18.1737 24.3915 18.2069 24.464 18.1989C24.5558 18.1897 24.745 18.2069 24.718 18.1394C24.6326 17.9173 24.9602 17.7983 24.8045 17.5751C24.6964 17.424 24.6672 17.2294 24.4326 17.1722C24.251 17.1264 24.2413 16.8253 24.0197 16.7349C23.8683 16.6743 23.811 16.7178 23.7256 16.807C23.5981 16.9421 23.7591 16.9959 23.8067 17.0211C23.9861 17.1252 23.8132 17.361 23.9721 17.4583C24.024 17.4892 24.0316 17.527 23.9786 17.5465C23.7732 17.622 23.704 17.8864 23.4867 17.9368C23.3505 17.9711 23.237 17.8795 23.117 17.8486C23.01 17.82 23.1321 18.1039 23.0003 18.2115C22.8976 18.2962 22.6327 18.3912 22.516 18.3076C22.3916 18.2195 22.2954 18.1039 22.1462 18.0341C21.9787 17.9585 22.3106 17.7937 22.1376 17.6403C22.0879 17.5945 22.2338 17.5796 22.2997 17.5716C22.5051 17.5465 22.7019 17.5819 22.9149 17.464C23.063 17.3828 23.1008 17.2923 23.0575 17.2042C22.9624 17.0142 22.9657 16.8219 22.9365 16.6239C22.8878 16.3011 22.9246 16.0447 23.1386 15.9428C23.2251 15.9028 23.3008 15.8513 23.3819 15.8055C23.6089 15.6739 23.7224 15.4942 23.6586 15.3614C23.5635 15.1554 23.1905 14.9779 23.0067 15.0489C22.9592 15.4014 22.6543 15.2481 22.4792 15.3511C22.3527 15.4243 22.2414 15.4839 22.1787 15.651C22.1473 15.7334 22.1516 15.8616 22.0652 15.9131C22.0014 15.9509 21.996 15.7872 21.8976 15.8398C21.809 15.8902 21.7982 16.0916 21.6479 16.0035C21.4533 15.8902 21.3971 15.6601 21.2955 15.4747C21.2847 15.4552 21.4036 15.3076 21.4555 15.311C21.969 15.3362 22.1441 14.8383 22.4738 14.5888C22.6803 14.432 22.6338 14.2305 22.4122 14.0394C22.2997 13.9443 22.2262 13.8265 22.1225 13.3297C22.0771 13.1122 22.0684 12.9382 21.8165 12.8959C21.7452 12.8833 21.6814 12.7574 21.6382 12.6692C21.5452 12.4804 21.476 12.2721 21.2252 12.5056C21.1982 12.5307 21.0339 12.3671 21.0652 12.3293C21.2274 12.1359 21.0976 12.1473 20.9701 12.1519C20.7387 12.1576 20.8144 12.0763 20.9106 11.963C20.9377 11.9321 20.9387 11.8451 20.8804 11.7959C20.8518 11.7712 20.8264 11.7428 20.8047 11.7112C20.9128 11.5853 21.1117 11.7135 21.2166 11.5349C21.2522 11.4777 21.3625 11.5269 21.4122 11.6036C21.5203 11.7661 21.69 11.86 21.77 12.0763C21.8565 12.3133 22.1646 12.3636 22.3506 12.5307C22.5527 12.6109 22.7916 12.446 22.9516 12.572C22.8586 12.446 22.5884 12.6063 22.4705 12.406L22.4587 12.4083ZM9.2615 12.4083L9.36203 12.3648C9.3469 12.3373 9.33068 12.2869 9.31447 12.2858L8.78476 12.2824C8.76098 12.1977 8.5037 12.1141 8.78476 12.0306C8.96854 12.042 8.86044 11.8245 8.96854 11.7673C9.05502 11.7238 8.98908 11.6643 8.948 11.6391C8.59883 11.4205 8.30695 11.0622 7.8313 11.1423C7.65725 11.1721 7.47348 11.1481 7.29727 11.1481C7.22052 11.1481 7.10593 11.1355 7.11782 11.2419C7.15566 11.5326 6.9027 11.6139 6.80324 11.8005C6.73514 11.9241 6.62704 12.1107 6.90594 12.1599C7.1135 12.1977 6.72217 12.39 6.96756 12.4575C7.0562 12.4827 7.14701 12.5742 7.0108 12.7253C6.93189 12.8169 6.98269 12.9909 7.10809 13.1031C7.38808 13.364 7.43672 13.7532 7.57293 14.0931C7.60861 14.179 7.55131 14.2374 7.52969 14.3106C7.40213 14.7639 7.23782 15.192 6.94378 15.5651C6.83243 15.7059 6.71892 15.8902 6.75568 16.1077C6.78487 16.2874 6.66487 16.3686 6.54812 16.435C6.51569 16.4522 6.40434 16.3973 6.40434 16.3778C6.40975 16.2015 6.34489 16.015 6.51893 15.8616C6.76973 15.6441 6.91243 15.3316 7.06809 15.0363C7.30916 14.5762 7.33835 14.1218 6.97188 13.7131C6.85297 13.5792 6.84108 13.3812 6.68649 13.2656C6.58488 13.19 6.6065 13.0412 6.6746 12.9337C6.71784 12.865 6.80432 12.81 6.65514 12.7849C6.56326 12.77 6.51893 12.8158 6.51137 12.9234C6.49063 13.1444 6.53319 13.367 6.63352 13.562C6.67568 13.6422 6.64109 13.7898 6.6573 13.9718C6.66595 14.0657 6.77622 14.1653 6.75244 14.2957C6.72 14.2809 6.6746 14.2763 6.65298 14.25C6.59569 14.1801 6.51569 14.1298 6.44975 14.1813C6.33624 14.2729 6.47894 14.3324 6.51137 14.3473C6.70271 14.4297 6.54488 14.5659 6.55677 14.6666C6.62487 15.2252 6.63244 15.2389 6.33732 15.6601C6.23787 15.8032 6.28327 15.9577 6.19679 16.1088C6.04436 16.3709 6.21408 16.569 6.52218 16.5621C6.59677 16.5609 6.68001 16.5953 6.74054 16.5117C6.77406 16.4659 6.82703 16.4133 6.8627 16.4991C6.88324 16.5495 6.88648 16.6147 6.83243 16.6697C6.74803 16.7493 6.64499 16.8034 6.53407 16.8265C6.20436 16.9272 6.09085 17.2351 6.1449 17.6334C6.17084 17.8326 6.17192 18.0238 6.26381 18.2138C6.33192 18.3511 6.19246 18.572 6.32543 18.6796C6.41624 18.7529 6.62812 18.6693 6.70703 18.7449C6.88 18.9085 6.95567 18.6487 7.10917 18.6922C7.29295 18.7426 7.17836 18.4427 7.33403 18.3958C7.38375 18.3809 7.46159 18.2973 7.45294 18.2698C7.42483 18.1737 7.32862 18.2069 7.25619 18.1989C7.16431 18.1897 6.97513 18.2069 7.00215 18.1394C7.08863 17.9173 6.76 17.7983 6.91567 17.5751C7.02377 17.424 7.05296 17.2294 7.28862 17.1722C7.47024 17.1264 7.47888 16.8253 7.70158 16.7349C7.85184 16.6743 7.91021 16.7178 7.99453 16.807C8.12209 16.9421 7.9621 16.9959 7.91346 17.0211C7.73509 17.1252 7.90805 17.361 7.74914 17.4583C7.69617 17.4892 7.68968 17.527 7.74157 17.5465C7.94697 17.622 8.01615 17.8864 8.23344 17.9368C8.37073 17.9711 8.48424 17.8795 8.60315 17.8486C8.71125 17.82 8.5891 18.1039 8.7199 18.2115C8.8226 18.2962 9.08745 18.3912 9.2042 18.3076C9.32852 18.2195 9.42581 18.1039 9.57391 18.0341C9.74147 17.9585 9.4096 17.7937 9.58256 17.6403C9.63337 17.5945 9.48743 17.5796 9.42149 17.5716C9.21609 17.5465 9.01827 17.5819 8.8053 17.464C8.65828 17.3828 8.62045 17.2923 8.66261 17.2042C8.75882 17.0142 8.75449 16.8219 8.78476 16.6239C8.83233 16.3011 8.79557 16.0447 8.58153 15.9428C8.49505 15.9028 8.41938 15.8513 8.3383 15.8055C8.11128 15.6739 7.99886 15.4942 8.06156 15.3614C8.15669 15.1554 8.53072 14.9779 8.7145 15.0489C8.76206 15.4014 9.06583 15.2481 9.24204 15.3511C9.36852 15.4243 9.47986 15.4839 9.54256 15.651C9.57283 15.7334 9.56851 15.8616 9.65607 15.9131C9.71877 15.9509 9.72526 15.7872 9.82255 15.8398C9.91227 15.8902 9.92308 16.0916 10.0733 16.0035C10.2668 15.8902 10.3241 15.6601 10.4247 15.4747C10.4366 15.4552 10.3177 15.3076 10.2647 15.311C9.75228 15.3362 9.57716 14.8383 9.24636 14.5888C9.03989 14.432 9.08637 14.2305 9.30798 14.0394C9.42041 13.9443 9.495 13.8265 9.59878 13.3297C9.6431 13.1122 9.65283 12.9382 9.90363 12.8959C9.97497 12.8833 10.0398 12.7574 10.0831 12.6692C10.176 12.4804 10.2441 12.2721 10.4949 12.5056C10.5231 12.5307 10.6863 12.3671 10.6549 12.3293C10.4928 12.1359 10.6225 12.1473 10.7511 12.1519C10.9825 12.1576 10.9057 12.0763 10.8106 11.963C10.7825 11.9321 10.7814 11.8451 10.8398 11.7959C10.8683 11.7712 10.8938 11.7428 10.9155 11.7112C10.8074 11.5853 10.6085 11.7135 10.5047 11.5349C10.4679 11.4777 10.3587 11.5269 10.3079 11.6036C10.1998 11.7661 10.0301 11.86 9.95119 12.0763C9.86363 12.3133 9.55662 12.3636 9.37068 12.5307C9.16745 12.6109 8.92854 12.446 8.76963 12.572C8.8626 12.446 9.13177 12.6063 9.2496 12.406L9.2615 12.4083Z" fill="#EDC139"/>
<path d="M7.94348 21.6119H7.04515V23.1137H6.32843V19.4395H8.11537V20.053H7.04515V21.0019H7.9424L7.94348 21.6119ZM9.99959 21.5227H9.10018V22.5059H10.2385V23.1137H8.38454V19.4395H10.2331V20.053H9.10018V20.9286H9.99959V21.5227ZM10.512 23.1137V19.4395H11.5822C11.8871 19.4395 12.1606 19.5139 12.4006 19.6592C12.6427 19.8046 12.8319 20.0106 12.967 20.2807C13.1021 20.5474 13.1702 20.8531 13.1702 21.193V21.3624C13.1702 21.7035 13.1032 22.008 12.9692 22.2735C12.8428 22.5329 12.6478 22.7476 12.4081 22.8916C12.158 23.0402 11.8755 23.1168 11.5887 23.1137H10.512ZM11.2287 20.053V22.5059H11.5746C11.8557 22.5059 12.0687 22.4086 12.2168 22.2151C12.3649 22.0217 12.4405 21.7459 12.4438 21.3853V21.1907C12.4438 20.8176 12.3703 20.5349 12.2243 20.3437C12.0773 20.1491 11.8633 20.053 11.5822 20.053H11.2287ZM15.1615 21.5227H14.2632V22.5059H15.4004V23.1137H13.5464V19.4395H15.395V20.053H14.2632V20.9286H15.1604L15.1615 21.5227ZM17.3192 21.7687H16.3895V23.1137H15.6739V19.4395H17.3235C17.7343 19.4395 18.0522 19.5367 18.2748 19.7302C18.4975 19.9236 18.6089 20.1972 18.6089 20.5497C18.6165 20.7712 18.5624 20.9902 18.4532 21.1793C18.3382 21.3571 18.1766 21.4956 17.9884 21.5776L18.7408 23.0782V23.1137H17.9711L17.3192 21.7687ZM16.3895 21.1564H17.3257C17.5062 21.1564 17.6457 21.1083 17.7441 21.0122C17.7942 20.9604 17.8334 20.8978 17.8589 20.8288C17.8844 20.7597 17.8958 20.6856 17.8922 20.6115C17.8963 20.5367 17.8859 20.4618 17.8617 20.3913C17.8376 20.3209 17.8001 20.2564 17.7516 20.2018C17.6587 20.1022 17.517 20.053 17.3235 20.053H16.3906L16.3895 21.1564Z" fill="#EEC239"/>
<path d="M19.0953 19.4395V20.0518H20.0499V20.053H20.3126C20.5104 20.053 20.6542 20.0896 20.745 20.164C20.838 20.2361 20.8834 20.3563 20.8834 20.5223C20.8834 20.8199 20.7028 20.9721 20.3418 20.9801H19.8121V20.9778H19.0953V21.5135H20.4682C20.798 21.5192 20.9623 21.6898 20.9623 22.0263C20.9623 22.1751 20.9147 22.2941 20.8196 22.38C20.7065 22.4706 20.5665 22.5153 20.425 22.5059H19.0953V23.1137H20.4466C20.8412 23.1102 21.146 23.0175 21.359 22.8367C21.573 22.6535 21.679 22.3868 21.679 22.0343C21.685 21.8457 21.6305 21.6605 21.5244 21.5089C21.42 21.3642 21.2707 21.2633 21.1028 21.2239C21.2514 21.1666 21.3795 21.0618 21.4693 20.924C21.5576 20.7826 21.6032 20.6162 21.6001 20.4467C21.6001 20.1171 21.492 19.8675 21.2736 19.697C21.0552 19.5253 20.7353 19.4395 20.3126 19.4395H19.0953ZM22.7892 21.5227H23.4486V20.9286H22.7892V20.053H23.6832V19.4395H22.0725V23.1137H23.6875V22.5059H22.7892V21.5227ZM25.5534 20.053H24.9653V23.1137H24.2486V20.053H23.9135V19.4395H25.5534V20.053Z" fill="#494A4A"/>
<path d="M20.6456 13.8949C20.6449 14.5578 20.5209 15.214 20.2807 15.8261C20.0404 16.4383 19.6887 16.9943 19.2455 17.4625C18.8023 17.9307 18.2764 18.3019 17.6977 18.5549C17.119 18.8079 16.499 18.9377 15.8729 18.9369C13.2374 18.9369 11.1013 16.6797 11.1013 13.8949C11.1013 11.11 13.2374 8.85401 15.8729 8.85401C17.1371 8.85249 18.3501 9.38269 19.2451 10.328C20.1401 11.2733 20.6439 12.5563 20.6456 13.8949Z" fill="#333332"/>
<path fill-rule="evenodd" clip-rule="evenodd" d="M15.8729 18.4321C18.2458 18.4321 20.1678 16.4016 20.1678 13.8949C20.1678 11.3882 18.2458 9.35763 15.8729 9.35763C13.5001 9.35763 11.5791 11.3893 11.5791 13.8949C11.5791 16.4005 13.5033 18.4321 15.8729 18.4321ZM15.8729 18.9358C18.5084 18.9358 20.6456 16.6797 20.6456 13.8949C20.6456 11.11 18.5095 8.854 15.8729 8.854C13.2374 8.854 11.1013 11.1112 11.1013 13.8949C11.1013 16.6786 13.2374 18.9369 15.8729 18.9369V18.9358Z" fill="white"/>
<path d="M15.8727 12.0054V12.6166H16.8272V12.6189H17.091C17.2877 12.6189 17.4326 12.6555 17.5234 12.7299C17.6153 12.802 17.6618 12.9211 17.6618 13.0882C17.6618 13.3858 17.4812 13.538 17.1191 13.5449H16.5894V13.5426H15.8727V14.0783H17.2456C17.5753 14.084 17.7407 14.2545 17.7407 14.5911C17.7407 14.741 17.6931 14.8589 17.5969 14.9447C17.4841 15.0351 17.3446 15.0798 17.2034 15.0707H15.8727V15.6784H17.224C17.6196 15.675 17.9234 15.5834 18.1374 15.4014C18.3515 15.2195 18.4574 14.9528 18.4574 14.5991C18.463 14.4104 18.4081 14.2252 18.3017 14.0737C18.1976 13.9292 18.0487 13.8283 17.8812 13.7887C18.0294 13.7313 18.1571 13.6265 18.2466 13.4888C18.3353 13.3476 18.3813 13.1811 18.3785 13.0115C18.3785 12.6818 18.2693 12.4323 18.0509 12.2629C17.8326 12.0912 17.5126 12.0054 17.091 12.0054H15.8727Z" fill="white"/>
<path fill-rule="evenodd" clip-rule="evenodd" d="M15.8729 18.684C18.3776 18.684 20.4067 16.5401 20.4067 13.8949C20.4067 11.2497 18.3787 9.10582 15.8729 9.10582C13.3671 9.10582 11.3412 11.2508 11.3412 13.8949C11.3412 16.539 13.3703 18.684 15.874 18.684H15.8729ZM15.8729 18.9358C18.5084 18.9358 20.6456 16.6797 20.6456 13.8949C20.6456 11.11 18.5095 8.854 15.8729 8.854C13.2374 8.854 11.1013 11.1112 11.1013 13.8949C11.1013 16.6786 13.2374 18.9369 15.8729 18.9369V18.9358Z" fill="#333332"/>
<path d="M13.8977 14.1775H14.796V15.6781H15.5127V12.0039H13.7258V12.6186H14.796V13.5663H13.8977V14.1775Z" fill="#EEC239"/>
<path fill-rule="evenodd" clip-rule="evenodd" d="M15.221 7.7292C15.4772 7.53576 15.8729 7.08936 15.8729 7.08936C15.8729 7.08936 16.2674 7.5369 16.5247 7.7292C16.782 7.92035 17.4241 7.85739 17.4241 7.85739C17.4241 7.85739 17.276 9.71167 17.0382 10.2874C16.8004 10.8632 15.8729 11.3748 15.8729 11.3748C15.8729 11.3748 14.9443 10.8632 14.7075 10.2874C14.4697 9.71052 14.3216 7.85625 14.3216 7.85625C14.3216 7.85625 14.9637 7.9192 15.221 7.72805V7.7292Z" fill="#333332"/>
<path fill-rule="evenodd" clip-rule="evenodd" d="M17.3753 8.3656C17.4078 8.06571 17.424 7.85739 17.424 7.85739C17.424 7.85739 17.1872 7.88028 16.9451 7.85625C16.7862 7.84022 16.6262 7.80474 16.5246 7.7292C16.414 7.64225 16.309 7.54782 16.21 7.44648C16.0944 7.33086 15.9819 7.21177 15.8727 7.08936C15.8727 7.08936 15.716 7.26677 15.5354 7.44648C15.4368 7.54817 15.3321 7.64299 15.2219 7.73034C15.1203 7.80588 14.9592 7.84137 14.8014 7.85625C14.5582 7.88143 14.3225 7.85854 14.3225 7.85854C14.3225 7.85854 14.3398 8.06686 14.3701 8.36675C14.4328 8.95966 14.5506 9.90625 14.7084 10.2886C14.9452 10.8643 15.8738 11.3759 15.8738 11.3759C15.8738 11.3759 16.8024 10.8643 17.0391 10.2886C17.197 9.90625 17.3148 8.95966 17.3764 8.36675L17.3753 8.3656ZM16.8964 8.35759C16.8228 8.3503 16.7495 8.33884 16.677 8.32325C16.524 8.29365 16.3784 8.23134 16.2489 8.14011C16.1166 8.03692 15.9909 7.9245 15.8727 7.8036C15.7545 7.9245 15.6288 8.03692 15.4965 8.14011C15.367 8.23134 15.2214 8.29365 15.0684 8.32325C14.9959 8.33884 14.9226 8.3503 14.849 8.35759C14.863 8.48922 14.8792 8.63688 14.8987 8.79025C14.9311 9.05352 14.97 9.32822 15.0154 9.56859C15.0619 9.81926 15.1073 9.99668 15.1452 10.086C15.2079 10.2382 15.4025 10.4419 15.6587 10.6377C15.7343 10.696 15.8078 10.7475 15.8727 10.791C15.9456 10.7423 16.0169 10.6912 16.0867 10.6377C16.3429 10.4431 16.5375 10.2382 16.6002 10.086C16.6381 9.99668 16.6835 9.81926 16.73 9.56745C16.7754 9.32708 16.8143 9.05237 16.8467 8.79025C16.8662 8.63688 16.8824 8.48922 16.8964 8.35759Z" fill="white"/>
<path fill-rule="evenodd" clip-rule="evenodd" d="M17.1829 7.86769C17.3224 7.86769 17.424 7.85625 17.424 7.85625L17.4013 8.1115C17.3505 8.64031 17.2207 9.8433 17.038 10.2863C16.8002 10.8632 15.8727 11.3737 15.8727 11.3737C15.8727 11.3737 14.9441 10.8632 14.7074 10.2863C14.5236 9.8433 14.3939 8.64031 14.3441 8.1115C14.329 7.95468 14.3225 7.85739 14.3225 7.85739C14.3225 7.85739 14.423 7.86655 14.5625 7.86655C14.7722 7.86655 15.0663 7.84366 15.2208 7.7292C15.3711 7.61702 15.5679 7.41672 15.7073 7.27135C15.8046 7.16604 15.8727 7.08936 15.8727 7.08936C15.8727 7.08936 15.9408 7.16604 16.0392 7.2702C16.1765 7.41672 16.3743 7.61702 16.5246 7.72805C16.6791 7.8448 16.9732 7.86769 17.184 7.86655L17.1829 7.86769ZM17.1613 8.11951L17.0597 8.11722C16.9471 8.11337 16.8351 8.09998 16.7245 8.07716C16.6039 8.05451 16.4888 8.00623 16.3862 7.93523C16.2023 7.78925 16.0301 7.6273 15.8716 7.45105C15.7131 7.6269 15.5409 7.78847 15.3571 7.93408C15.2546 8.00549 15.1394 8.05416 15.0187 8.07716C14.876 8.10709 14.7307 8.12129 14.5852 8.11951V8.13096C14.6036 8.3118 14.6284 8.55904 14.662 8.82345C14.6944 9.089 14.7355 9.36828 14.7809 9.61667C14.8273 9.86848 14.8782 10.0699 14.9257 10.1867C15.0165 10.4065 15.2598 10.6445 15.5181 10.8425C15.6326 10.9294 15.7509 11.0103 15.8727 11.0852C15.9948 11.011 16.1132 10.93 16.2273 10.8425C16.4867 10.6445 16.7289 10.4076 16.8197 10.1867C16.8672 10.0699 16.917 9.86963 16.9645 9.61667C17.0099 9.36828 17.051 9.089 17.0834 8.82345C17.1159 8.55904 17.1418 8.3118 17.1591 8.12981L17.1602 8.11836L17.1613 8.11951Z" fill="#333332"/>
<path d="M15.8728 8.35072L16.0598 8.95966H16.6673L16.1766 9.33738L16.3636 9.94632L15.8728 9.56859L15.382 9.94632L15.569 9.33624L15.0782 8.95966H15.6858L15.8728 8.35072ZM12.8913 7.08936L13.0783 7.69944H13.6859L13.1951 8.07601L13.3821 8.68495L12.8913 8.30837L12.4005 8.68609L12.5876 8.07601L12.0968 7.69829H12.7032L12.8913 7.08936ZM10.8622 8.7273L11.0503 9.33738H11.6557L11.166 9.71396L11.353 10.3229L10.8622 9.94632L10.3715 10.324L10.5585 9.71396L10.0677 9.33624H10.6752L10.8622 8.7273ZM18.8553 7.08936L18.6683 7.69944H18.0619L18.5527 8.07601L18.3646 8.68495L18.8553 8.30837L19.3461 8.68609L19.1591 8.07601L19.6499 7.69829H19.0434L18.8553 7.08936ZM20.8844 8.7273L20.6974 9.33738H20.0899L20.5807 9.71396L20.3936 10.3229L20.8844 9.94632L21.3752 10.324L21.1882 9.71396L21.679 9.33624H21.0725L20.8844 8.7273Z" fill="#EDC139"/>
</g>
<defs>
<clipPath id="clip0_96_139">
<rect width="19.4585" height="16.0246" fill="white" transform="translate(6.13049 7.08936)"/>
</clipPath>
</defs>
</svg>
