<svg width="12" height="13" viewBox="0 0 12 13" fill="none" xmlns="http://www.w3.org/2000/svg">
<path d="M10.6863 1.45181C9.91413 0.675521 8.89142 0.248047 7.80651 0.248047H4.07724C2.99234 0.248047 1.96953 0.675521 1.19742 1.45181C0.425223 2.22801 0 3.25622 0 4.34687V8.09579C0 9.18654 0.425223 10.2148 1.19742 10.9909C1.96953 11.7672 2.99234 12.1947 4.07724 12.1947H7.80651C8.89142 12.1947 9.91422 11.7672 10.6863 10.9909C11.4584 10.2148 11.8838 9.18654 11.8838 8.09579V4.34687C11.8838 3.25622 11.4584 2.22801 10.6863 1.45181ZM5.94188 9.38305C4.20771 9.38305 2.79686 7.96473 2.79686 6.22138C2.79686 4.47803 4.20771 3.05971 5.94188 3.05971C7.67605 3.05971 9.0869 4.47803 9.0869 6.22138C9.0869 7.96473 7.67605 9.38305 5.94188 9.38305ZM9.42599 3.21384C9.36125 3.27892 9.2714 3.31629 9.17983 3.31629C9.08817 3.31629 8.9985 3.27892 8.93376 3.21384C8.86876 3.14867 8.83167 3.05844 8.83167 2.96629C8.83167 2.87414 8.86876 2.78381 8.93376 2.71874C8.9985 2.65357 9.08808 2.61629 9.17983 2.61629C9.2714 2.61629 9.36125 2.65357 9.42599 2.71874C9.49081 2.78381 9.52799 2.87414 9.52799 2.96629C9.52799 3.05835 9.49081 3.14867 9.42599 3.21384Z" fill="#525252"/>
</svg>
