<svg width="16" height="14" viewBox="0 0 16 14" fill="none" xmlns="http://www.w3.org/2000/svg">
<path fill-rule="evenodd" clip-rule="evenodd" d="M12.0015 13.4282C12.2107 13.5729 12.4804 13.6091 12.7209 13.5202C12.9613 13.4307 13.1381 13.2302 13.1914 12.9871C13.7561 10.3951 15.1261 3.83455 15.6401 1.47676C15.6791 1.29905 15.6141 1.11436 15.4712 0.995681C15.3282 0.876998 15.13 0.842726 14.9532 0.906827C12.2283 1.89183 3.83638 4.96679 0.406326 6.2063C0.188616 6.285 0.0469429 6.48936 0.0540916 6.7134C0.0618901 6.93807 0.216561 7.13291 0.439469 7.19828C1.97773 7.64763 3.9969 8.27278 3.9969 8.27278C3.9969 8.27278 4.94053 11.0558 5.43249 12.4711C5.49422 12.6488 5.63655 12.7884 5.82436 12.8367C6.01153 12.8843 6.21169 12.8341 6.35141 12.7053C7.14166 11.9767 8.36344 10.8502 8.36344 10.8502C8.36344 10.8502 10.6848 12.5124 12.0015 13.4282ZM4.84629 7.92117L5.93744 11.436L6.17984 9.21018C6.17984 9.21018 10.3956 5.49674 12.7989 3.38013C12.869 3.31793 12.8788 3.21384 12.8203 3.14086C12.7625 3.06787 12.6559 3.05073 12.5759 3.10024C9.79057 4.83732 4.84629 7.92117 4.84629 7.92117Z" fill="#525252"/>
</svg>
